<svg width="21" height="25" viewBox="0 0 21 25" xmlns="http://www.w3.org/2000/svg">
<path d="M10.5109 14.7808C11.4033 15.4803 12.3047 16.3031 13.3187 16.9586C15.3066 18.2448 15.7981 20.1424 15.8979 22.3184C12.2975 22.3184 8.75154 22.3184 5.11853 22.3184C5.21466 20.2763 5.59011 18.4315 7.43836 17.1471C8.50668 16.4036 9.50426 15.5596 10.5109 14.7808Z"/>
<path d="M15.3102 5.87073C14.3307 8.11719 11.7207 8.61934 10.4927 10.6526C9.3029 8.61229 6.6711 8.13657 5.71161 5.87073C8.93833 5.87073 12.0508 5.87073 15.3102 5.87073Z"/>
<path d="M13.5236 11.2217C13.9897 10.85 14.4831 10.5081 14.98 10.1751C16.8156 8.94531 17.9528 7.27676 18.3065 5.13778C18.4915 4.01015 18.5967 2.86842 18.7455 1.64388H20.153C20.6209 1.64388 21 1.27564 21 0.821059C21 0.808725 20.9964 0.798153 20.9964 0.78582L21 0.782296L20.9946 0.77701C20.971 0.345338 20.6046 0 20.153 0H0.847038C0.379081 0 0 0.368243 0 0.82282C0 0.828106 0.00181378 0.833392 0.00181378 0.838678L0 0.84044L0.00181378 0.842202C0.0126965 1.28621 0.386336 1.64564 0.847038 1.64564H2.28356C2.31983 1.74783 2.33253 1.77074 2.33434 1.7954C2.34885 2.05793 2.3688 2.32046 2.37424 2.58475C2.45224 6.01875 3.59129 8.90655 6.81076 10.7301C7.09553 10.8905 7.35308 11.1037 7.60157 11.3186C8.56832 12.152 8.58646 12.9519 7.61246 13.7607C7.04111 14.2364 6.41717 14.6557 5.8023 15.0803C4.12092 16.2467 3.09794 17.8307 2.72793 19.7882C2.51572 20.9176 2.4214 22.0682 2.25998 23.3544H0.847038C0.379081 23.3544 0 23.7226 0 24.1772C0 24.6318 0.379081 25 0.847038 25H20.153C20.6209 25 21 24.6318 21 24.1772C21 24.1719 20.9982 24.1666 20.9982 24.1613L21 24.1596L20.9982 24.1578C20.9873 23.712 20.6137 23.3544 20.153 23.3544H18.711C18.6693 23.2257 18.6457 23.1782 18.6439 23.1306C18.633 22.8963 18.6312 22.6619 18.6258 22.4276C18.5296 19.0641 17.4268 16.2185 14.2672 14.4284C14.0079 14.2822 13.7775 14.0831 13.5453 13.8963C12.3954 12.9696 12.3827 12.1309 13.5236 11.2217ZM13.3295 15.7058C16.2352 17.7109 17.318 19.982 16.9371 23.3544C12.6729 23.3544 8.40145 23.3544 3.99758 23.3544C4.05925 20.8718 4.14994 18.4298 6.36094 16.6643C7.10641 16.0688 7.92805 15.5631 8.65901 14.9535C10.3966 13.5034 10.3857 11.5671 8.64631 10.124C8.12031 9.68708 7.55623 9.28536 6.98126 8.91183C4.27691 7.16048 4.03567 4.48587 3.98851 1.64564C8.35973 1.64564 12.6294 1.64564 16.9843 1.64564C17.0931 4.91049 16.315 7.57805 13.3168 9.44393C10.1735 11.3997 10.266 13.5915 13.3295 15.7058Z"/>
</svg>
