<svg width="25" height="25" viewBox="0 0 25 25" xmlns="http://www.w3.org/2000/svg">
<path d="M12.4837 12.9819C7.51125 12.9913 3.39781 16.9281 3.1494 21.9032C3.14278 22.0444 3.16497 22.1855 3.2146 22.3178C3.26424 22.4502 3.34028 22.571 3.43811 22.673C3.53594 22.775 3.6535 22.8561 3.78365 22.9112C3.91379 22.9664 4.05379 22.9944 4.19513 22.9937H20.813C20.9536 22.9933 21.0927 22.9644 21.2219 22.9088C21.3511 22.8532 21.4677 22.772 21.5647 22.6701C21.6616 22.5682 21.7369 22.4477 21.7861 22.3159C21.8352 22.1841 21.8571 22.0437 21.8506 21.9032C21.6018 16.9218 17.4787 12.9825 12.5 12.9819H12.4837Z"/>
<path d="M12.5003 2.00623C9.8645 2.00623 7.71559 4.16524 7.71558 6.80402C7.71557 9.4428 9.86448 11.6093 12.5003 11.6093C15.1362 11.6093 17.2926 9.4428 17.2925 6.80402C17.2925 4.16524 15.1362 2.00623 12.5003 2.00623Z"/>
</svg>
